<svg version="1.1" xmlns="http://www.w3.org/2000/svg" viewBox="0 0 172 172">
    <g fill="none" fill-rule="nonzero" stroke="none" stroke-width="1" stroke-linecap="butt"
        stroke-linejoin="miter" stroke-miterlimit="10" stroke-dasharray="" stroke-dashoffset="0"
        font-family="none" font-weight="none" font-size="none" text-anchor="none"
        style="mix-blend-mode: normal">
        <path d="M0,172v-172h172v172z" fill="none"></path>
        <g>
            <path
                d="M136.16667,17.91667h-100.33333c-9.87925,0 -17.91667,8.03742 -17.91667,17.91667v100.33333c0,9.87925 8.03742,17.91667 17.91667,17.91667h100.33333c9.87925,0 17.91667,-8.03742 17.91667,-17.91667v-100.33333c0,-9.87925 -8.03742,-17.91667 -17.91667,-17.91667z"
                fill="#9c27b0"></path>
            <path
                d="M86,132.58333c-9.05508,0 -16.55142,-6.88 -17.61925,-15.73442c-3.62275,1.55158 -7.62533,1.83825 -11.481,0.80625c-4.601,-1.23625 -8.43875,-4.214 -10.81808,-8.37783c-4.515,-7.91558 -2.3435,-17.92025 4.72283,-23.27375c-7.07708,-5.36425 -9.24142,-15.36533 -4.71925,-23.27733c2.37575,-4.17458 6.22425,-7.15592 10.836,-8.38858c3.85567,-1.02842 7.8475,-0.73458 11.45592,0.817c1.075,-8.86158 8.57133,-15.738 17.62283,-15.738c9.0515,0 16.54783,6.88 17.61925,15.73083c3.612,-1.55517 7.611,-1.849 11.46308,-0.81342c4.60817,1.23625 8.45667,4.21758 10.83242,8.39217c4.52217,7.90842 2.35067,17.91308 -4.72283,23.27375c7.06992,5.3535 9.23783,15.35817 4.71925,23.27733c-2.36858,4.16383 -6.20275,7.138 -10.80733,8.37783c-3.86283,1.03558 -7.87258,0.74533 -11.48817,-0.80625c-1.06425,8.85442 -8.56058,15.73442 -17.61567,15.73442zM73.90267,103.63c0.602,0 1.21475,0.1505 1.77017,0.46942c1.58025,0.89942 2.236,2.84158 1.52292,4.515c-1.548,3.63708 -1.77733,5.35708 -1.77733,6.05583c0,5.92683 4.74792,10.74642 10.58158,10.74642c5.83367,0 10.58158,-4.81958 10.58158,-10.74642c0,-0.69875 -0.22933,-2.41875 -1.77733,-6.05225c-0.71308,-1.67342 -0.06092,-3.612 1.51933,-4.515c1.58383,-0.903 3.58333,-0.48017 4.66192,0.98542c2.3435,3.17842 3.68725,4.23192 4.2785,4.5795c2.4295,1.41542 5.27108,1.79525 7.98367,1.06425c2.73767,-0.73817 5.02383,-2.5155 6.44283,-5.00592c2.93475,-5.14925 1.19683,-11.74975 -3.87358,-14.71675c-0.59125,-0.344 -2.16433,-0.99258 -6.03433,-1.45125c-1.80242,-0.215 -3.1605,-1.74508 -3.1605,-3.55825c0,-1.81317 1.35808,-3.34325 3.1605,-3.55825c3.87717,-0.46225 5.44667,-1.11083 6.03792,-1.45483c5.07042,-2.97058 6.80833,-9.5675 3.87358,-14.70958c-1.42258,-2.50475 -3.7195,-4.28567 -6.46433,-5.02025c-2.71975,-0.72742 -5.53983,-0.344 -7.96575,1.075c-0.59125,0.34758 -1.93858,1.40467 -4.27492,4.57592c-1.075,1.462 -3.07808,1.88842 -4.65833,0.98542c-1.58025,-0.89942 -2.236,-2.84158 -1.52292,-4.515c1.54442,-3.6335 1.77375,-5.34992 1.77375,-6.04867c0,-5.92683 -4.74792,-10.75 -10.58158,-10.75c-5.83367,0 -10.58158,4.82317 -10.58158,10.75c0,0.69875 0.22933,2.41517 1.77733,6.04867c0.71308,1.67342 0.06092,3.612 -1.51933,4.515c-1.58025,0.903 -3.57975,0.48017 -4.66192,-0.98542c-2.3435,-3.17842 -3.68725,-4.2355 -4.28208,-4.58308c-2.41875,-1.41542 -5.24242,-1.79883 -7.955,-1.075c-2.74842,0.73817 -5.04175,2.51908 -6.46792,5.02025c-2.93833,5.14567 -1.20042,11.74258 3.87358,14.71675c0.58767,0.34042 2.15717,0.989 6.03433,1.45125c1.80242,0.215 3.1605,1.74508 3.1605,3.55825c0,1.81317 -1.35808,3.34325 -3.1605,3.55825c-3.87717,0.46225 -5.44667,1.11083 -6.03792,1.45483c-5.06683,2.967 -6.80475,9.56392 -3.87358,14.70958c1.419,2.494 3.71233,4.27133 6.45358,5.0095c2.71975,0.73458 5.547,0.35117 7.98367,-1.06783c0.58767,-0.344 1.93142,-1.40108 4.26775,-4.57592c0.69875,-0.94242 1.78092,-1.45483 2.89175,-1.45483z"
                fill="#ffffff"></path>
            <path
                d="M86,100.33333c-7.90483,0 -14.33333,-6.4285 -14.33333,-14.33333c0,-7.90483 6.4285,-14.33333 14.33333,-14.33333c7.90483,0 14.33333,6.4285 14.33333,14.33333c0,7.90483 -6.4285,14.33333 -14.33333,14.33333zM86,78.83333c-3.95242,0 -7.16667,3.21425 -7.16667,7.16667c0,3.95242 3.21425,7.16667 7.16667,7.16667c3.95242,0 7.16667,-3.21425 7.16667,-7.16667c0,-3.95242 -3.21425,-7.16667 -7.16667,-7.16667z"
                fill="#ffffff"></path>
        </g>
    </g>
</svg>